HIERARCHY
ROOT Hips
{
  OFFSET 0 0 0
  CHANNELS 6 Xposition Yposition Zposition Zrotation Yrotation Xrotation
  JOINT LeftThigh
  {
    OFFSET 8.409438 0 -5.917753
    CHANNELS 3 Zrotation Yrotation Xrotation
    JOINT LeftLeg
    {
      OFFSET 0 0 -42.358652
      CHANNELS 3 Zrotation Yrotation Xrotation
      JOINT LeftFoot
      {
        OFFSET 0 0 -39.357303
        CHANNELS 3 Zrotation Yrotation Xrotation
      }
    }
  }
  JOINT RightThigh
  {
    OFFSET -8.409438 0 -5.917753
    CHANNELS 3 Zrotation Yrotation Xrotation
    JOINT RightLeg
    {
      OFFSET 0 0 -42.358652
      CHANNELS 3 Zrotation Yrotation Xrotation
      JOINT RightFoot
      {
        OFFSET 0 0 -39.357303
        CHANNELS 3 Zrotation Yrotation Xrotation
      }
    }
  }
  JOINT SpineLow
  {
    OFFSET 0 0 4.719101
    CHANNELS 3 Zrotation Yrotation Xrotation
    JOINT SpineMid
    {
      OFFSET 0 0 12.899191
      CHANNELS 3 Zrotation Yrotation Xrotation
      JOINT Chest
      {
        OFFSET 0 0 12.899191
        CHANNELS 3 Zrotation Yrotation Xrotation
        JOINT LeftShoulder
        {
          OFFSET 7.550562 1.41573 9.438202
          CHANNELS 3 Zrotation Yrotation Xrotation
          JOINT LeftArm
          {
            OFFSET 9.155056 0 4.247191
            CHANNELS 3 Zrotation Yrotation Xrotation
            JOINT LeftForearm
            {
              OFFSET 0 0 25.771955
              CHANNELS 3 Zrotation Yrotation Xrotation
              JOINT LeftHand
              {
                OFFSET 0 0 25.197169
                CHANNELS 3 Zrotation Yrotation Xrotation
              }
            }
          }
        }
        JOINT RightShoulder
        {
          OFFSET -7.550562 1.41573 9.438202
          CHANNELS 3 Zrotation Yrotation Xrotation
          JOINT RightArm
          {
            OFFSET -9.155056 0 4.247191
            CHANNELS 3 Zrotation Yrotation Xrotation
            JOINT RightForearm
            {
              OFFSET 0 0 -25.771955
              CHANNELS 3 Zrotation Yrotation Xrotation
              JOINT RightHand
              {
                OFFSET 0 0 -25.197169
                CHANNELS 3 Zrotation Yrotation Xrotation
              }
            }
          }
        }
        JOINT Neck
        {
          OFFSET 0 0 15.101124
          CHANNELS 3 Zrotation Yrotation Xrotation
          JOINT Head
          {
            OFFSET 0 0 11.325843
            CHANNELS 3 Zrotation Yrotation Xrotation
            End Site
            {
              OFFSET 0 0 14.157303
            }
          }
        }
      }
    }
  }
}
MOTION
Frames: 10
Frame Time: 0.0
0.0  89.887642  0.0  10.185424  -58.637236  -114.723442  26.686022  -45.098728  -15.991891  24.602486  22.551703  77.517958  5.436376  9.004871  1.594756  -30.395532  17.193475  -28.385267  30.733388  1.524083  50.44376  1.772311  -1.934639  3.952074  3.184864  1.195009  1.737874  8.791966  3.029293  4.901302  8.791965  3.029293  4.901302  -15.463062  12.661259  7.112902  -92.377095  51.847613  -92.560719  -40.531235  0.307979  74.682582  79.714496  -3.294197  15.661836  -6.977606  -4.536943  20.797942  159.052052  32.999764  64.341229  -30.507375  -18.104856  -70.444049  94.476545  5.818078  -26.719363  3.942241  -3.756957  11.631042  3.028522  -2.744023  8.744834  
0.0  89.887642  0.0  10.362651  -58.687119  -114.886255  26.977525  -45.185743  -15.89431  24.317482  22.236347  77.254331  5.297539  9.023091  1.554921  -29.471463  17.116172  -27.984627  30.75307  1.307598  50.922371  1.360026  -1.818548  3.793516  3.277063  1.281563  1.826196  9.055236  3.246054  5.1586  9.055236  3.246054  5.1586  -15.966653  12.159165  6.671295  -92.853861  51.543747  -92.748433  -40.418111  0.314684  74.779013  79.69579  -3.272928  15.46989  -7.413513  -5.081136  20.312202  159.051444  32.58627  64.218298  -30.110051  -18.595397  -70.198804  95.996184  6.272693  -28.304651  3.428728  -4.149768  11.321557  2.648503  -3.050187  8.511071  
0.0  89.887642  0.0  10.596831  -58.776164  -115.077939  27.228873  -45.277562  -15.745999  23.733667  22.102415  76.62559  5.389741  9.368246  1.747213  -28.394766  17.020472  -27.582864  30.520897  1.41517  51.353318  0.778253  -2.181328  4.023013  3.344513  1.347138  1.903466  9.249086  3.408495  5.382127  9.249086  3.408496  5.382127  -16.283576  11.784553  6.218152  -93.203089  51.348023  -92.845409  -40.204781  0.179055  74.879178  79.727912  -3.253599  15.448084  -7.663344  -5.42955  19.891395  159.053517  32.360061  64.125976  -29.804347  -18.470727  -70.065295  97.514929  6.824568  -29.38008  3.025724  -4.445215  11.029253  2.349437  -3.280694  8.290058  
0.0  89.887642  0.0  10.863381  -58.869399  -115.33496  27.337098  -45.398718  -15.481172  23.698786  21.879725  76.346441  5.23417  9.383431  1.708627  -27.392136  16.996469  -27.236185  30.14374  1.724304  51.793299  0.656543  -2.142076  3.926577  3.380891  1.379772  1.958138  9.354202  3.486601  5.537909  9.354203  3.486601  5.537909  -16.378042  11.643527  5.937603  -93.485942  51.198897  -92.857686  -39.935864  -0.157979  74.981618  79.772816  -3.197081  15.622432  -7.678417  -5.538967  19.658068  159.038333  32.311135  64.055404  -29.730034  -18.037565  -69.839063  98.986854  7.657749  -29.460349  2.734065  -4.605808  10.831897  2.132037  -3.407273  8.140365  
0.0  89.887642  0.0  11.132932  -58.924669  -115.577229  27.244047  -45.540996  -15.165298  24.023183  21.59631  76.312317  5.022105  9.289915  1.555368  -26.502379  17.002893  -26.86226  30.216903  1.862435  52.323001  0.127377  -2.27047  3.582745  3.394398  1.394071  1.988433  9.393975  3.520068  5.623377  9.393976  3.520068  5.623378  -16.375489  11.637673  5.802219  -93.761347  51.070227  -92.870945  -39.614586  -0.663077  75.101392  79.824805  -3.13426  15.906235  -7.617546  -5.544957  19.603368  159.123957  32.321871  64.072451  -29.824573  -17.494459  -69.754106  100.010273  8.325855  -28.871608  2.506045  -4.675316  10.696986  1.961208  -3.463974  8.037639  
0.0  89.887642  0.0  11.388812  -58.864633  -115.78528  26.927801  -45.598317  -14.76038  24.318536  21.39147  76.063569  5.00426  9.283447  1.562519  -26.015325  17.006487  -26.621553  29.972208  2.373129  52.559022  0.179376  -2.216377  3.406373  3.39816  1.398268  1.997644  9.405118  3.529858  5.649329  9.405118  3.529858  5.649329  -16.404692  11.725866  5.821602  -94.042494  50.960601  -92.886355  -39.292202  -1.211429  75.222674  79.877377  -3.094943  16.200295  -7.555085  -5.446126  19.684319  159.237527  32.391208  64.092065  -30.097897  -16.894908  -69.817287  100.493981  8.663041  -28.174719  2.255657  -4.680127  10.629871  1.773012  -3.472184  7.985389  
0.0  89.887642  0.0  11.670585  -58.620786  -115.9762  26.42866  -45.540523  -14.298829  24.802239  20.957408  75.938418  4.743278  9.219578  1.462736  -26.001897  16.978914  -26.308462  29.947722  2.976507  52.527731  0.371614  -2.035189  3.179597  3.346115  1.388835  1.992187  9.26169  3.509472  5.630442  9.26169  3.509472  5.630442  -16.234108  12.00413  5.974545  -94.349301  50.839743  -92.903836  -39.027206  -1.679369  75.346982  79.958587  -3.09251  16.385034  -7.444042  -5.223033  19.833261  159.391075  32.433219  64.078686  -30.311939  -16.149474  -70.029883  100.385009  8.730197  -27.646581  2.069398  -4.569468  10.580341  1.631073  -3.392545  7.946644  
0.0  89.887642  0.0  11.936107  -58.249721  -116.238229  25.727132  -45.455885  -13.6889  25.155863  20.601395  75.597108  4.664436  9.268743  1.509497  -25.708028  17.143096  -25.934805  29.753137  3.523398  52.499148  0.486998  -1.976015  3.03977  3.275617  1.370675  1.992485  9.067291  3.466079  5.62513  9.067291  3.466079  5.62513  -16.025748  12.378307  6.223193  -94.661506  50.760484  -92.880165  -38.893525  -2.037132  75.426212  80.017456  -3.132644  16.464042  -7.179391  -4.879576  20.01426  159.551047  32.432692  63.99587  -30.7935  -15.493371  -70.101239  99.99441  8.72849  -27.360026  1.933413  -4.370249  10.604306  1.525873  -3.245352  7.963304  
0.0  89.887642  0.0  12.205689  -57.874272  -116.418061  25.116642  -45.347514  -13.174831  25.774149  20.110045  75.476015  4.534681  9.195793  1.488257  -25.726619  17.200715  -25.680629  29.908935  3.911722  52.353169  0.597044  -1.83631  2.873663  3.178005  1.344159  1.965959  8.796713  3.405851  5.544204  8.796713  3.405851  5.544204  -15.538231  12.806536  6.593124  -95.120523  50.711495  -92.847432  -38.874085  -2.145799  75.518645  80.128723  -3.079372  16.352643  -6.985732  -4.551976  20.309025  159.677828  32.433279  63.727169  -30.980314  -14.863282  -70.124725  99.372226  8.579366  -27.223856  1.659909  -4.194095  10.537131  1.317278  -3.11809  7.910786  
0.0  89.887642  0.0  12.319181  -57.436692  -116.459217  24.610357  -45.239902  -12.773421  26.092038  19.747297  75.100368  4.485153  9.236495  1.503314  -25.418997  17.271144  -25.249728  29.924179  4.306391  52.184891  0.56402  -1.758775  2.757893  3.117278  1.318827  1.941985  8.627241  3.345154  5.472351  8.627241  3.345154  5.472351  -15.387599  13.157365  6.915213  -95.500447  50.733696  -92.783602  -38.992295  -2.206836  75.503744  80.066146  -3.070367  16.285737  -6.824679  -4.179441  20.56571  159.81251  32.391774  63.581502  -31.36823  -14.589787  -70.124166  98.510002  8.391621  -27.204248  1.473873  -3.969849  10.623661  1.174501  -2.952853  7.97419  
